<svg xmlns="http://www.w3.org/2000/svg" viewBox="0 0 425.5 198.69"><g id="レイヤー_2" data-name="レイヤー 2"><g id="レイヤー_1-2" data-name="レイヤー 1"><path d="M29.25,43.5c1.06-5,3.63-12.86,5.94-19.95-7.27,9.84-16.13,22.52-22.25,32.36-.89,1.41-2.3,2-4.08.62A9,9,0,0,1,5.5,49.17a24.52,24.52,0,0,1,.7-5.23C9.31,30.73,16.4,10.61,20.74,2.28,22,.06,23.49,0,24.64,1.93a7.94,7.94,0,0,1,1.15,4.34c0,2.48-1.15,6.38-2.92,11.17-2.93,7.8-4.7,11.43-8,22.51a439.11,439.11,0,0,1,27-36.61c1-1.15,2.39-1.59,3.63.18a7.28,7.28,0,0,1,1.69,4.7,23.26,23.26,0,0,1-1.6,7.09c-2.75,8.15-5.23,14.09-8.51,26.77C46.27,27.81,59.39,12.12,68,1.22c1.59-1.95,3.1-1.42,3.36.62.45,3.19-.62,7.27-9.57,18.79-7,9-17.28,22.25-25.44,34.83-1.06,1.51-2.39,2-4,.53a10.82,10.82,0,0,1-3.63-7.79A24.9,24.9,0,0,1,29.25,43.5Z"/><path d="M77.12,43.23a11.35,11.35,0,0,1-6.29-1.95,18.49,18.49,0,0,0-.8,5.23c0,3.9,1.59,6.65,4.25,6.65C81,53.16,87,46.6,90.59,41.1c1-1.41,2.13-1.59,2.84.18A7.68,7.68,0,0,1,92.19,47c-3.73,5.41-10.82,9.58-17.73,9.66-8.24.09-12.76-5.31-12.76-12.41A22,22,0,0,1,64.44,34.1C69.05,24.71,76.23,20,81.37,20a5.8,5.8,0,0,1,3.11.71A16,16,0,0,1,90,25.33a6.43,6.43,0,0,1,.89,3.28C90.86,33.92,84.92,43.23,77.12,43.23Zm-5.05-5.32a3.53,3.53,0,0,0,2,.62c2.12,0,5-2.66,6.73-5.05,2.57-3.46,4.44-7.62,3.46-8.42C82.88,24,76.32,29.4,72.07,37.91Z"/><path d="M129.06,11.5c-2.74,10.55-12.41,21-20.21,26.24-1.77,4.52-2.92,8.5-2.92,11.61,0,2.12.53,3.63,1.68,3.63,4.08,0,9.22-5.94,12.59-12.32,1.15-2.22,3.1-2.22,3.72.09a8.53,8.53,0,0,1-.88,5.76c-1.33,2.66-7.89,9.93-15.34,9.93-5.41,0-8.77-3.1-8.77-9.22a20.83,20.83,0,0,1,.62-5C103,27.45,113,11.06,121.71,1.93c1.68-1.69,3.28-2.22,5-.63a8.67,8.67,0,0,1,2.93,6.48A11.61,11.61,0,0,1,129.06,11.5Zm-10.1,7c-2.31,3.9-6.21,10.55-6.83,12.06A56,56,0,0,0,121,19.3c3-5.05,4.16-9,3.63-9.31C124.28,9.81,122,13.27,119,18.5Z"/><path d="M155.83,25.86c1.33,2.92-.08,6.2-1.77,9.66a28.06,28.06,0,0,0-1.59,3.63c-.62,1.69-1.42,1.86-3.2,1a6,6,0,0,1-3.1-5.05c0-1.16.45-2.93,2-6.56.89-1.78,1.51-3.37,1.15-3.73-1.06-.88-6.82,4.88-10.37,12.06a24.18,24.18,0,0,0-2.66,9.93c0,3.9,1.6,6.29,4,6.38,6.65.09,12.77-6.74,16.31-12.06.8-1.33,2.13-1.68,2.66-.17.44,1.15.44,3.45-1.15,5.94a22.39,22.39,0,0,1-17.46,9.75C132.52,56.7,128,51.47,128,44.38a22.4,22.4,0,0,1,2.75-10.28c4.52-9.13,11.52-13.91,16.66-13.91C150.69,20.19,154.42,23.2,155.83,25.86Z"/><path d="M246.6,41.46c.53.71.62,3.72-.53,5.94-2.48,5-9.66,9.57-15,9.48-5.94-.09-9.22-3.37-9.22-8.06a13.21,13.21,0,0,1,1.33-5.68A98,98,0,0,1,229.58,32c.89-1.33,3.64-5.4,3.37-5.49-.44-.09-2.83,1.15-7.89,6.29C218.24,39.51,214,48.2,210.26,56a2.11,2.11,0,0,1-3.55.71,6.47,6.47,0,0,1-1.77-4.78,19,19,0,0,1,1.51-6.56c1.24-3.28,4.16-8,6.56-11.79s4.61-7,4.07-7.27-4.16,2-9.48,7.89c-4.79,5.23-8.95,13.21-12.41,21.45-.62,1.33-1.59,1.6-3.1.44a5.72,5.72,0,0,1-2-4.69,16.35,16.35,0,0,1,.8-4.7,74.4,74.4,0,0,1,4.52-10.11,12.79,12.79,0,0,1-5.23,1c-2.22,8.77-8.78,19-17.64,19a10.4,10.4,0,0,1-8.6-4.44,13,13,0,0,1-2.39-7.62A25.56,25.56,0,0,1,165.32,32c3.37-5.93,8.86-11.52,14.54-11.52,3.19,0,4.69.62,6.64,3.19,3,3.37,4.35,5.14,4.35,10.64,4.7-.71,9.57-6.92,13.65-13.21,1-1.42,2.48-1.51,3.46,0a8.37,8.37,0,0,1,1.15,4,12.91,12.91,0,0,1-.27,2.48c4-3.9,8.6-7.09,11.53-7.09s4.69,3.28,4.69,6.91c3.81-3.27,8.78-6.38,11.35-6.29s3.9,2.57,3.9,5.41a11.77,11.77,0,0,1-1,4.7,83.94,83.94,0,0,1-4.25,7.53,41.42,41.42,0,0,0-3.64,6.38,11.07,11.07,0,0,0-1.24,4.7c0,2,.89,3.37,2.31,3.37,3.19,0,7.8-5.67,11-11.7C244.47,39.69,245.72,40.13,246.6,41.46ZM170.37,52c2.13,0,6-3.28,9.31-9.22a31.77,31.77,0,0,0,2.92-7.09,11.88,11.88,0,0,1-5.31-6.65,32,32,0,0,0-5.14,6.82,26.14,26.14,0,0,0-3.64,12.24C168.51,50.68,169.13,52,170.37,52Zm14.72-24.29c0-1.33-.71-1.86-1.33-1.86s-1.33.71-1.33,2.13A8.83,8.83,0,0,0,183.85,33,15,15,0,0,0,185.09,27.72Z"/><path d="M265.4,43.23a11.35,11.35,0,0,1-6.29-1.95,18.49,18.49,0,0,0-.8,5.23c0,3.9,1.59,6.65,4.25,6.65,6.74,0,12.68-6.56,16.31-12.06,1-1.41,2.13-1.59,2.84.18A7.68,7.68,0,0,1,280.47,47c-3.72,5.41-10.82,9.58-17.73,9.66C254.5,56.79,250,51.39,250,44.29a22,22,0,0,1,2.74-10.19C257.33,24.71,264.51,20,269.65,20a5.78,5.78,0,0,1,3.11.71,16,16,0,0,1,5.49,4.61,6.43,6.43,0,0,1,.89,3.28C279.14,33.92,273.2,43.23,265.4,43.23Zm-5-5.32a3.53,3.53,0,0,0,1.95.62c2.12,0,5-2.66,6.73-5.05,2.57-3.46,4.44-7.62,3.46-8.42C271.16,24,264.6,29.4,260.35,37.91Z"/><path d="M324.08,39.33a185,185,0,0,1,8.69-17.73c-2.75-.35-4.34-1.33-5-2.39-1.24-1.86-.36-2.75,1.68-2.66a49.89,49.89,0,0,0,6.38-.18c2.75-4.78,4.61-7.71,6.65-10.63,1.33-1.95,2.39-1.86,3.37-.18a8,8,0,0,1,1,3.63,15.63,15.63,0,0,1-1.41,6.12,6.37,6.37,0,0,1,4.87,2.84c.89,1.59.27,2.66-1.86,2.39a26.4,26.4,0,0,0-5.85.27c-3.37,5.76-8.42,14.53-11.52,21.27a16.72,16.72,0,0,0-1.6,6.65c0,2.66.89,4.52,2.39,4.52,3.46,0,8.07-5.59,11.17-12.24,1-2.12,3-2.3,3.64.09.44,1.87.08,3.19-.89,5.23-1.24,2.66-7.18,10.29-14.63,10.29-4.69,0-8.77-3.82-8.77-9.93A19.45,19.45,0,0,1,324.08,39.33Z"/><path d="M379.22,37.74c-1.87,7.35-7.54,16-14.27,18.34a9.85,9.85,0,0,1-3.2.54,10.79,10.79,0,0,1-8.68-4.53,12.47,12.47,0,0,1-2.48-7.71A26.53,26.53,0,0,1,354.31,32c4-7.09,9.57-11.52,15.42-11.52,2.57,0,4.17,1,5.85,3.28,2.48,2.93,5,3.55,4.17,11.08,2.3,0,2.48.8,1.77,1.68A3.73,3.73,0,0,1,379.22,37.74ZM359.63,52.09c2.3,0,5.85-3.27,9.13-9.3a30.29,30.29,0,0,0,2.92-6.38,11.24,11.24,0,0,1-5.4-7.18,28.44,28.44,0,0,0-5.06,6.64c-2.3,4.26-3.72,9.22-3.72,12.5C357.5,51,358.3,52.09,359.63,52.09Zm14.71-24.37c0-1.33-.71-1.86-1.33-1.86s-1.33.71-1.33,2.13A8.83,8.83,0,0,0,373.1,33,14.77,14.77,0,0,0,374.34,27.72Z"/><path d="M18,156.49c.62-4,3.19-14,6.21-23.76-6.92,10.64-14.8,23.4-19.59,34.39-.53,1.25-1.86,1.51-3,.36A6.1,6.1,0,0,1,0,163.05a15.17,15.17,0,0,1,1.24-5.59c3.64-8.86,17.55-32.08,26.86-44.58,1.06-1.42,2.48-1.95,4.16-.62a9.09,9.09,0,0,1,3.64,7.18,23.26,23.26,0,0,1-1.24,6.38c-2.75,8-4.52,13.38-7.71,25.26C36.25,137,45.74,128.3,55.58,112.7c1.15-1.86,2.3-2,4-.35a8.73,8.73,0,0,1,2.58,6.11A17.48,17.48,0,0,1,60,125.73c-6.12,11.44-14.89,29-19.24,41.39-.62,1.78-1.42,1.78-2.83.54a6.43,6.43,0,0,1-2-5.06,19.21,19.21,0,0,1,.71-5v.09c1.06-4.17,5.4-13.47,9.75-22.34-7.8,10-16.4,22-21.63,31.47-1,1.77-1.77,1.77-3.1.8a9.38,9.38,0,0,1-3.9-8A20.88,20.88,0,0,1,18,156.49Z"/><path d="M95,157.73c-3.54,5.41-9.39,8.69-16.66,11.7-4.87,11.7-10.9,25.88-18.61,28.81-2,.79-3.9.79-6-2a13.16,13.16,0,0,1-2.66-7.36,14.14,14.14,0,0,1,.8-4.16c2.75-7.63,9.93-13,18.52-16.49l1.33-3.1a11.84,11.84,0,0,1-7.27,2.48c-4.43,0-6.38-3.37-6.38-7.09a18.54,18.54,0,0,1,1.16-6.21A98.2,98.2,0,0,1,71.09,132.2c1.16-1.51,2.48-1.59,3.46-.18a8,8,0,0,1,1.68,4.26c0,2.21-1.06,4.78-3.1,8.06a75.87,75.87,0,0,0-6.56,12.59c-1.24,3.19-2,6.74.27,6.74s6.29-5.23,10.63-12.59c5.94-10,8.34-15.42,10.46-18.61,1.24-1.6,2.4-1.78,3.37-.8A5.69,5.69,0,0,1,93,136.19a12.79,12.79,0,0,1-1.6,5.94c-2.57,5-7.18,13.56-10.81,22a45.24,45.24,0,0,0,12.85-11.79c1.15-1.59,2.48-1.77,2.84-.62A7.48,7.48,0,0,1,95,157.73ZM59,184.14c-2.22,4.17-2.84,7.8-2,8.6.62.53,2.48-2,5-6.38,1.86-3.28,4-7.62,6.12-12.41A29.42,29.42,0,0,0,59,184.14Z"/><path d="M137.31,157.64c2.22-7.62,10.19-23.58,17.82-35.63a6.78,6.78,0,0,1-5.14-3.9c-.62-1.33-.27-2.13,1.68-2.31a40.49,40.49,0,0,0,10-2.57,32.93,32.93,0,0,1,9.66-2.12c4.87-.18,9.22,1.06,11.34,7.53,2,6.2.36,10.64-2.74,15.33A36.92,36.92,0,0,1,155,149.66a12.19,12.19,0,0,1-5.94-.35c-2.39,4.61-5.23,10.28-8.07,17.11-.71,1.59-1.41,1.59-2.66.35a6.54,6.54,0,0,1-1.68-4.7A17.27,17.27,0,0,1,137.31,157.64Zm15.25-15c17.64-4,26.23-16.93,24.64-22.87a2.94,2.94,0,0,0-2.84-1.77c-2,0-5.32,1.15-8.33,2.22-1.42.53-2.13.79-3.37,1.15-.09,2.21-1.33,5.76-3.37,9.48C158.5,132.2,157.61,133.8,152.56,142.66Z"/><path d="M238.45,158.7c-2.39,5.41-8.95,9.31-14.09,9.31-5.68,0-8.78-4-8.78-9.22,0-4.52,4.61-12.67,9.66-18.79a19.55,19.55,0,0,1-7,1.69,14.21,14.21,0,0,1-10.55,6.91c-2,8.51-10.37,19-17.55,19a10.54,10.54,0,0,1-8.6-4.43,13.31,13.31,0,0,1-2.39-7.72A27.25,27.25,0,0,1,182.78,143c3.37-6.11,9.22-11.07,14.72-11.52,3.1-.17,4.7.71,6.65,3.28.44.53.88.89,1.41,1.42,1.78,1.86,2.84,4.17,2.84,8.86,1.6-.62,3.1-2,4.61-4.34a4,4,0,0,1-2.22-3.72c0-4.7,5.94-11.17,8.87-11.26,2,0,2.66,1.24,2.66,3.1a24.32,24.32,0,0,1-1.69,7.45,26.62,26.62,0,0,0,7.63-3.81c1.5-1.07,2.66-1.33,3.9-.09a9,9,0,0,1,2.48,6,5.33,5.33,0,0,1-1.51,3.54c-3.72,4.34-8,10.28-9.57,14.89a12.72,12.72,0,0,0-.71,4c0,2.22.71,3.64,2,3.64,3.1,0,8.15-5.5,10.81-11.53.8-1.77,2-1.95,3-.18a4.66,4.66,0,0,1,.53,2.58A7.8,7.8,0,0,1,238.45,158.7Zm-50.79,4.35c2.13,0,6.38-3.64,9.66-9.22a26,26,0,0,0,2.84-6.74,10.85,10.85,0,0,1-5.23-6.91,35.1,35.1,0,0,0-5.14,6.74c-2.22,4.16-3.73,9.21-3.73,12.4C186.06,161.54,186.6,163.05,187.66,163.05Zm15.25-24.2c0-1.33-.71-1.86-1.33-1.86s-1.33.71-1.33,2.12a8.93,8.93,0,0,0,1.41,5.06A14.82,14.82,0,0,0,202.91,138.85Z"/><path d="M243.6,150.46a185.81,185.81,0,0,1,8.68-17.73c-2.75-.35-4.34-1.33-5.05-2.39-1.24-1.86-.35-2.75,1.68-2.66a50,50,0,0,0,6.39-.18c2.74-4.78,4.61-7.71,6.64-10.63,1.33-2,2.4-1.86,3.37-.18a8,8,0,0,1,1,3.63,15.67,15.67,0,0,1-1.42,6.12,6.35,6.35,0,0,1,4.87,2.84c.89,1.59.27,2.66-1.86,2.39a26.42,26.42,0,0,0-5.85.27c-3.37,5.76-8.42,14.53-11.52,21.27a16.89,16.89,0,0,0-1.6,6.65c0,2.65.89,4.52,2.4,4.52,3.45,0,8.06-5.59,11.17-12.24,1-2.12,3-2.3,3.63.09.44,1.86.09,3.19-.89,5.23-1.24,2.66-7.18,10.28-14.62,10.28-4.7,0-8.78-3.81-8.78-9.92A19.27,19.27,0,0,1,243.6,150.46Z"/><path d="M284.37,149.84c4.26,1.51,4.79,6.65,4.34,11.43a27.57,27.57,0,0,0,7-9.57c1-1.95,2.74-2.13,3.54.18.53,1.5,0,3.46-.8,5.49s-5.14,7.1-10.37,9.13c-1.33,8.78-5.23,18.88-9.48,24.29-1.77,2.22-3.55,3.28-5.85,3.28-3.37,0-7.54-5.32-7.54-12.14,0-18.09,22.16-54.78,32.27-70a2.46,2.46,0,0,1,1.86-1.24c1.06,0,2.57,1.6,2.57,4.7,0,2.48-1.06,5.58-3.63,10.11C294.56,132,288.63,141.51,284.37,149.84Zm-12.14,38.73c1.86,0,6.56-11.34,9-21.27a7.8,7.8,0,0,1-4.08-2.13c-3.37,8.34-5.76,16.22-5.76,20.39C271.43,187.25,271.7,188.57,272.23,188.57Zm11.08-30.13c0-3.28-.36-4.7-1-4.43s-1.15,3.72-1.15,5.76c0,1.59.27,2.66,1.51,3.19A14.8,14.8,0,0,0,283.31,158.44Z"/><path d="M355.9,138.32c-3.36,4.07-7.09,7.8-11.7,10.1-1.86,4.7-2.92,8.87-2.92,12.06,0,2.12.53,3.63,1.68,3.63,3.64,0,9.49-5.85,12.68-12.23,1.06-2.22,2.92-2.39,3.46,0a8.8,8.8,0,0,1-.71,5.67c-1.42,3.46-8.34,9.93-15.43,9.93-5.32,0-8.68-3-8.68-9.13a20.27,20.27,0,0,1,.62-5,19.48,19.48,0,0,1,.62-2.74,15.32,15.32,0,0,1-3-.09c-2.21,6.82-7.62,14.27-13.74,16.49a10.72,10.72,0,0,1-12-3.82,13.48,13.48,0,0,1-2.48-7.71c0-4,1.5-8.33,3.81-12.41,4.08-6.91,9.84-11.61,15.42-11.61a6.75,6.75,0,0,1,5.76,3.19c3,3.46,4.61,5.06,4.26,9.84-.09,1.07-.18,1.86-.36,2.93a8.41,8.41,0,0,0,3.28,0c4.17-13,12.68-25.89,20.48-34,1.59-1.68,3.54-2,5.14-.44a8.86,8.86,0,0,1,2.66,6.38,14,14,0,0,1-.53,3.63C362.91,127.59,359.18,134.15,355.9,138.32Zm-42.45,24.9c2.39-.08,5.85-3.54,9-9.3a43.42,43.42,0,0,0,2.75-6.21,12.41,12.41,0,0,1-5.23-7.44,25,25,0,0,0-5.14,6.65,28.15,28.15,0,0,0-3.64,12.4C311.23,162.51,312.29,163.22,313.45,163.22Zm14.71-24.37c0-1.33-.71-1.86-1.33-1.86s-1.33.71-1.33,2.12a8.86,8.86,0,0,0,1.42,5.06A14.77,14.77,0,0,0,328.16,138.85Zm25.35-8.6c-1.86,3.19-4.43,6.56-5.85,10.81-.18.54-.18.71-.09.71.62,0,4.35-5.23,5.76-7.09,3.55-5.23,7.36-13.29,6.39-13.29C359.1,121.39,356.52,125,353.51,130.25Z"/><path d="M372.22,167.74c-5.41,0-7.8-3.1-7.8-7.53a20,20,0,0,1,1.06-5.85,113.26,113.26,0,0,1,11.17-21.1c1.33-1.77,2.39-1.94,3.55-.62,1.68,1.78,2.39,5.59.08,10-1.68,3.81-5.76,10.46-7.26,14a15.47,15.47,0,0,0-1.25,5.31c0,1.42.36,2.22,1.33,2.22,3.55,0,8.16-5.94,10.91-12,.71-1.59,1.86-1.42,2.66.18s.71,3.72-.45,6C383.56,164,377.45,167.74,372.22,167.74Zm11.34-45.2c2.49,0,4.88,3.19,4.88,5.76,0,2.39-1.33,4.43-3.55,4.43a5.52,5.52,0,0,1-5.23-5.4C379.66,124.84,381.52,122.54,383.56,122.54Z"/><path d="M422.83,148.87c-1.86,7.35-7.53,16-14.27,18.34a9.81,9.81,0,0,1-3.19.53,10.8,10.8,0,0,1-8.69-4.52,12.54,12.54,0,0,1-2.48-7.71c0-3.9,1.42-8.24,3.72-12.41,4-7.09,9.58-11.52,15.43-11.52,2.57,0,4.16,1,5.85,3.28,2.48,2.93,5,3.55,4.16,11.08,2.31,0,2.49.8,1.78,1.68A3.73,3.73,0,0,1,422.83,148.87Zm-19.59,14.35c2.31,0,5.85-3.28,9.13-9.3a30.38,30.38,0,0,0,2.93-6.38,11.26,11.26,0,0,1-5.41-7.18,28.48,28.48,0,0,0-5.05,6.64c-2.31,4.26-3.72,9.22-3.72,12.5C401.12,162.16,401.91,163.22,403.24,163.22ZM418,138.85c0-1.33-.71-1.86-1.33-1.86s-1.33.71-1.33,2.12a8.86,8.86,0,0,0,1.42,5.06A15,15,0,0,0,418,138.85Z"/></g></g></svg>